<svg xmlns="http://www.w3.org/2000/svg" width="44" height="42" viewBox="0 0 44 42">
  <defs>
    <style>
      .cls-1 {
        fill: #656565;
        fill-rule: evenodd;
      }
    </style>
  </defs>
  <path id="cloud.svg" class="cls-1" d="M738.994,222.257c0-.085.006-0.171,0.006-0.257a13,13,0,0,0-26,0q0,0.581.052,1.157A9.5,9.5,0,1,0,708.5,241a1,1,0,0,0,0-2,7.5,7.5,0,1,1,5.313-12.792,1,1,0,0,0,1.665-1A11,11,0,1,1,737,222c0,0.162-.012.32-0.023,0.479l-0.012.2a1,1,0,0,0,.422.878A8.495,8.495,0,0,1,732.5,239a1,1,0,0,0,0,2A10.495,10.495,0,0,0,738.994,222.257ZM727,228h-8a1,1,0,0,0-.941.662l-3.61,10.031a1,1,0,0,0,1.061,1.331l3.324-.4-2.8,10.109a1,1,0,0,0,1.8.81l9.062-14a1,1,0,0,0-.84-1.543h-2.119l3.87-5.419A1,1,0,0,0,727,228Zm-5.814,7.419A1,1,0,0,0,722,237h2.224l-4.522,6.986,1.457-5.266a1,1,0,0,0-.964-1.267,1.187,1.187,0,0,0-.119.007l-3.2.385L719.7,230h5.354Z" transform="translate(-699 -209)"/>
</svg>
