<svg xmlns="http://www.w3.org/2000/svg" width="32" height="26" viewBox="0 0 32 26">
  <defs>
    <style>
      .cls-1 {
        fill: #656565;
        fill-rule: evenodd;
      }
    </style>
  </defs>
  <path id="vent.svg" class="cls-1" d="M697.087,394.575c0-.062,0-0.124,0-0.186a9.455,9.455,0,0,0-18.909,0c0,0.279.013,0.558,0.037,0.835A6.923,6.923,0,0,0,668,401.25a0.728,0.728,0,0,0,1.455,0,5.461,5.461,0,0,1,9.318-3.822,0.731,0.731,0,0,0,.89.11,0.717,0.717,0,0,0,.321-0.83,7.9,7.9,0,0,1-.348-2.319,8,8,0,0,1,16,0c0,0.117-.008.231-0.016,0.346l-0.009.142a0.72,0.72,0,0,0,.307.633,6.128,6.128,0,0,1-3.554,11.157,0.722,0.722,0,1,0,0,1.444A7.569,7.569,0,0,0,697.087,394.575Zm-8.015,3.144a0.718,0.718,0,0,0,0,1.021,2.515,2.515,0,0,1,0,3.575,2.538,2.538,0,0,1-1.8.741H668.727a0.722,0.722,0,1,0,0,1.444h18.546a3.989,3.989,0,0,0,2.828-1.163,3.952,3.952,0,0,0,0-5.618A0.732,0.732,0,0,0,689.072,397.719Zm-0.708,8.225a0.726,0.726,0,0,0-.728-0.722H673.091a0.723,0.723,0,1,0,0,1.445h14.545A0.726,0.726,0,0,0,688.364,405.944Zm-1.455,1.445H676a0.722,0.722,0,1,0,0,1.444h10.909a1.452,1.452,0,0,1,1.455,1.445,0.727,0.727,0,0,0,1.454,0A2.9,2.9,0,0,0,686.909,407.389Z" transform="translate(-668 -385)"/>
</svg>
